# xmcd CD database file
#
# Track frame offsets:
#	150
#	50960
#	107138
#	160170
#	213951
#
# Disc length: 3568 seconds
#
# Revision: 0
# Processed by: cddbd v1.5.2PL0 Copyright (c) Steve Scherf et al.
# Submitted via: CDex 1.51
#
DISCID=430dee05
DTITLE=漫遊SPA音樂紀行 - 律動 Dance in the forest - 琉璃森林
DYEAR=1900
DGENRE=New Age
TTITLE0=Le Bois de belle
TTITLE1=La clairiere endormie
TTITLE2=La clairiere s'amime
TTITLE3=Un simple haricot
TTITLE4=A l'assaut des nuees
EXTD=
EXTT0=
EXTT1=
EXTT2=
EXTT3=
EXTT4=
PLAYORDER=
